<svg width="31" height="27" viewBox="0 0 31 27" fill="none" xmlns="http://www.w3.org/2000/svg">
<path d="M14.704 0.0112629C14.6585 0.0135174 14.4912 0.0270386 14.3321 0.0405598C11.057 0.315485 7.92865 2.09349 5.78798 4.89683C4.66392 6.36835 3.80228 8.16889 3.35183 9.98971C3.29604 10.2128 3.23818 10.4494 3.22372 10.517L3.19479 10.6365L2.9675 10.6996C1.86204 11.0015 0.928075 11.8939 0.516884 13.0432C0.343316 13.5254 0.270996 13.9536 0.270996 14.5147C0.270996 16.4437 1.13264 17.6538 2.84559 18.1226C3.11627 18.1969 3.46341 18.2623 3.80434 18.3051C4.08949 18.3411 4.96146 18.3794 4.96146 18.3569C4.96146 18.3502 4.89327 18.1158 4.80856 17.8409C4.26512 16.0584 4.14941 14.3525 4.43663 12.3784C4.50275 11.93 4.61019 11.3486 4.70524 10.9429C4.7445 10.7739 4.7755 10.6229 4.7755 10.6117C4.7755 10.5959 4.68665 10.5869 4.52961 10.5869C4.39323 10.5869 4.27752 10.5801 4.27132 10.5689C4.26719 10.5598 4.31265 10.3638 4.37257 10.1362C5.41811 6.18357 8.18693 3.03995 11.7657 1.74194C12.8836 1.33632 13.9291 1.14026 15.1379 1.10871C17.9522 1.03209 20.7231 2.12053 22.8761 4.14867C23.215 4.46641 23.8308 5.1402 24.1077 5.494C25.0685 6.72666 25.7834 8.10579 26.2545 9.65169C26.4591 10.321 26.6533 11.1728 26.6017 11.1728C26.5913 11.1728 26.4777 11.1525 26.3496 11.1255C26.2215 11.1007 26.1119 11.0849 26.1078 11.0894C26.1016 11.0939 26.1223 11.2359 26.1512 11.4049C26.2132 11.7835 26.2773 12.3018 26.3062 12.7052C26.3351 13.095 26.3351 14.0911 26.3062 14.4854C26.2153 15.7451 25.9632 16.9237 25.5417 18.0685C25.4941 18.1992 25.4487 18.3186 25.4445 18.3344C25.4342 18.3592 25.585 18.3637 26.3186 18.3547C27.2815 18.3434 27.3538 18.3366 27.7898 18.1902C29.0833 17.7597 30.04 16.5181 30.2445 14.9992C30.29 14.6522 30.2755 14.0077 30.2115 13.6854C30.1185 13.2099 29.9118 12.6759 29.6804 12.3131C29.5854 12.1643 29.575 12.1553 29.4056 12.0809C28.9448 11.8804 28.1782 11.5964 27.8001 11.4883C27.7216 11.468 27.7113 11.4567 27.7009 11.3801C27.3104 8.83593 26.2938 6.51483 24.7213 4.57007C24.4073 4.18247 23.775 3.51093 23.4134 3.18192C21.3388 1.28899 18.8634 0.20957 16.1711 0.0180244C15.8756 -0.0022583 14.9127 -0.00676346 14.704 0.0112629ZM16.6773 0.502523C19.0866 0.759422 21.3223 1.76898 23.1448 3.42079C23.4836 3.72727 24.2564 4.57232 24.5374 4.9419C25.2441 5.87033 25.802 6.82807 26.2566 7.89171C26.3847 8.18692 26.6368 8.84043 26.6368 8.87198C26.6368 8.87874 26.5479 8.70297 26.4384 8.47987C25.2069 5.95597 23.7006 4.10585 21.8037 2.78981C19.9317 1.48955 17.7766 0.754915 15.1627 0.525059C14.9478 0.50703 14.7618 0.489002 14.7495 0.48675C14.735 0.484497 14.8135 0.475483 14.921 0.466469C15.2309 0.441679 16.326 0.464214 16.6773 0.502523Z" fill="#0B55E2"/>
<path d="M14.89 2.19719C13.4023 2.29634 12.1088 2.65915 10.838 3.32844C9.4495 4.06308 8.27171 5.07039 7.26543 6.38417C7.12493 6.5667 6.75506 7.09853 6.68687 7.2112C6.65175 7.2743 6.65175 7.2743 6.70134 7.2743C6.81912 7.2743 7.43074 7.34641 7.67869 7.38923C8.25312 7.48838 8.83168 7.65063 9.31725 7.84443C9.56727 7.94809 10.1334 8.22076 10.121 8.23428C10.1169 8.23879 9.93301 8.19372 9.71191 8.13288C8.73869 7.86246 7.8192 7.74978 6.84804 7.77908C6.58356 7.78809 6.35627 7.79936 6.3418 7.80387C6.32734 7.81063 6.29841 7.84894 6.27568 7.8895C6.10831 8.20274 5.95334 8.5047 5.95334 8.51597C5.95334 8.52498 6.09592 8.52498 6.26948 8.52048C6.60422 8.50696 6.66001 8.52724 6.39346 8.56104C6.30461 8.57456 6.14964 8.60386 6.04839 8.6309L5.86449 8.67597L5.70539 9.04103C5.49876 9.50751 5.45537 9.61793 5.4781 9.61793C5.48843 9.61793 5.60621 9.59088 5.74052 9.55934C6.37693 9.41061 6.90177 9.35877 7.61464 9.3768C8.78415 9.4061 9.90408 9.67652 11.1852 10.2399C12.1212 10.65 12.9539 10.8844 13.9189 11.0061C14.3073 11.0557 15.3777 11.0647 15.7682 11.0196C16.7208 10.9114 17.353 10.7695 19.1982 10.2489C20.6777 9.82975 21.5517 9.64497 22.5497 9.5368C22.9485 9.49173 24.1532 9.48046 24.6594 9.51201L24.9466 9.53229L24.9322 9.47821C24.8743 9.26864 24.614 8.60386 24.4363 8.2095C23.7771 6.74473 22.9237 5.57742 21.7914 4.58363C20.1859 3.17295 18.2043 2.35043 16.0678 2.20395C15.7661 2.18367 15.1442 2.17916 14.89 2.19719Z" fill="#0B55E2"/>
<path d="M6.0155 9.93791C5.56092 9.97396 4.65588 10.1452 4.71787 10.1813C4.73234 10.1903 4.80052 10.2061 4.86871 10.2151C5.21585 10.2579 5.72415 10.4044 5.93698 10.5216C6.1746 10.6523 6.27998 10.819 6.18907 10.9272C6.14567 10.979 5.84813 11.0827 5.27577 11.2427C4.99475 11.3215 4.85011 11.3711 4.83978 11.3959C4.82945 11.4162 4.81705 11.4725 4.80879 11.5244L4.79639 11.6168L5.08774 11.6325C6.61059 11.7114 8.31527 12.3401 10.2307 13.53C11.7866 14.4967 13.014 14.9992 14.2496 15.1773C14.5864 15.2246 15.4316 15.2314 15.7477 15.1885C16.2539 15.1187 16.8862 14.9497 17.3987 14.7446C17.8904 14.5485 18.3058 14.3367 19.6117 13.6291C20.3328 13.237 21.0911 12.8381 21.2957 12.7412C22.5003 12.1689 23.6326 11.8083 24.7278 11.6461C25.2443 11.5717 25.234 11.5762 24.953 11.5311C24.2773 11.4252 23.2276 11.4162 22.5871 11.5108C21.2316 11.7091 20.0084 12.2004 18.8327 13.0207C18.6922 13.1176 18.5785 13.1919 18.5785 13.1852C18.5785 13.1243 19.1033 12.5317 19.343 12.3221C20.091 11.6708 21.0952 11.2201 22.2565 11.0173C23.2896 10.8348 24.6079 10.8393 25.7836 11.0286L25.8684 11.0421L25.8498 10.9565C25.8146 10.7852 25.8043 10.792 26.0543 10.837C26.3643 10.8956 26.356 10.8979 26.3374 10.7942C26.3291 10.7492 26.3209 10.7086 26.3188 10.7063C26.3167 10.7041 26.1866 10.6861 26.0275 10.6658C25.8684 10.6455 25.7361 10.6252 25.732 10.6207C25.7279 10.6185 25.8208 10.6027 25.9386 10.5869C26.0564 10.5711 26.1804 10.5531 26.2155 10.5441L26.2816 10.5306L26.2238 10.3097C26.1928 10.188 26.1638 10.0866 26.1576 10.0799C26.1535 10.0754 26.0667 10.0957 25.9655 10.1249C25.8622 10.1565 25.6721 10.2061 25.5419 10.2376L25.3022 10.2917L25.0356 10.2376C24.0149 10.0326 22.8929 10.0483 21.8019 10.2849C21.1138 10.4337 20.494 10.6342 19.1075 11.1593C17.9152 11.61 17.564 11.7294 16.942 11.8939C14.8633 12.4393 13.0161 12.1959 10.8816 11.1007C9.87945 10.5847 9.15005 10.303 8.338 10.1159C7.57554 9.94016 6.74903 9.87706 6.0155 9.93791Z" fill="#0B55E2"/>
<path d="M5.01713 12.6286C5.01093 12.6398 4.99233 12.7751 4.97373 12.9305C4.83116 14.1587 4.85596 15.3711 5.04399 16.5699C5.29608 18.1609 5.88083 19.7564 6.72801 21.1558C7.92439 23.1343 9.73445 24.7501 11.747 25.638C12.5363 25.9873 13.4455 26.2644 14.0489 26.3388C14.3464 26.3771 15.3671 26.3568 15.706 26.3073C17.9707 25.9737 20.4998 24.5901 22.6074 22.5349C22.9855 22.1676 23.6054 21.478 23.8906 21.1107C24.153 20.7704 24.3307 20.5248 24.3121 20.5248C24.3059 20.5248 24.2274 20.5856 24.1385 20.66C23.5951 21.1107 22.4566 21.9535 21.7292 22.4448C19.1608 24.18 16.9417 25.2098 16.016 25.0971C15.4333 25.0273 15.0489 24.847 14.8836 24.5676C14.7927 24.4098 14.7473 24.2025 14.7638 24.0109C14.7907 23.691 14.9931 23.1636 15.2163 22.8346C15.6151 22.2442 15.9395 21.6268 16.0759 21.1963C16.2494 20.6465 16.2494 20.0831 16.0738 19.7045C15.8589 19.2381 15.3837 18.855 14.7142 18.6071L14.5117 18.5327L14.2761 18.5598C13.6583 18.6364 13.1604 18.8054 11.9784 19.344C11.0279 19.7789 10.6395 19.9254 10.1787 20.02C9.94521 20.0696 9.45344 20.0764 9.24888 20.0313C9.08151 19.9952 8.79636 19.8893 8.65792 19.815C8.33351 19.6347 7.91199 19.2381 7.62684 18.846C7.2983 18.3907 6.87885 17.6223 6.64536 17.0454C6.30855 16.2094 6.13912 15.3868 6.16598 14.7108C6.19491 13.9717 6.45319 13.406 6.93257 13.0455L7.05448 12.9531L6.92224 12.89C6.50485 12.6849 6.25276 12.6353 5.57916 12.6218C5.27541 12.6151 5.02333 12.6196 5.01713 12.6286Z" fill="#0B55E2"/>
<path d="M23.4052 13.4961C23.8122 14.384 24.0168 15.3913 23.9527 16.2026C23.8019 18.0752 22.6179 19.3394 20.7582 19.6143C20.4028 19.6662 19.7065 19.6662 19.3325 19.6143C18.2539 19.4634 17.2249 19.1118 16.0988 18.5056C15.8364 18.3659 15.6235 18.2532 15.6235 18.2577C15.6235 18.2623 15.7661 18.3839 15.9417 18.5282C17.3034 19.6414 18.6279 20.3873 19.7664 20.6825C20.2313 20.8019 20.4318 20.8267 20.9236 20.829C21.4133 20.829 21.593 20.8042 21.9567 20.6915C22.7853 20.4346 23.5064 19.7541 23.9093 18.8504C24.18 18.2442 24.3123 17.6268 24.3371 16.8628C24.3742 15.6933 24.0746 14.5192 23.4961 13.566C23.4052 13.415 23.3246 13.2911 23.3204 13.2911C23.3142 13.2911 23.3514 13.3835 23.4052 13.4961Z" fill="#0B55E2"/>
<path d="M21.5952 13.753C21.4092 13.7959 21.4568 13.7733 19.8905 14.5012C18.3532 15.2178 17.7498 15.486 17.1837 15.7091C15.7476 16.2769 14.9066 16.3423 13.7454 15.9817C13.235 15.8217 12.611 15.5603 11.5427 15.0556C9.41445 14.0528 8.88135 13.8071 8.75118 13.7733C8.652 13.7485 8.54248 13.7395 8.39164 13.7463C8.19328 13.753 8.16022 13.7598 8.03211 13.8297C7.83581 13.9356 7.69117 14.1023 7.57546 14.3592C7.42049 14.7018 7.36677 15.033 7.38536 15.522C7.44322 17.0544 8.33792 18.4178 9.58182 18.8662C10.3918 19.1592 11.4187 19.0645 12.4622 18.6048C12.6978 18.5011 13.0449 18.3164 13.6173 17.9919C13.859 17.8521 14.1834 17.7304 14.4562 17.6696C14.7372 17.611 15.2517 17.6155 15.5616 17.6831C16.0204 17.7823 16.4625 17.9693 17.0018 18.2893C18.2767 19.051 19.4793 19.2786 20.5166 18.9563C20.7542 18.882 21.1881 18.6499 21.4175 18.4718C21.6489 18.2916 21.9568 17.9603 22.1366 17.6989C22.9569 16.5 23.147 14.7581 22.5333 14.0347C22.3019 13.7621 21.9837 13.6674 21.5952 13.753ZM10.1439 14.9001C11.394 15.4116 12.3073 16.0539 12.8052 16.7727C12.8796 16.8764 13.0201 17.1265 13.0201 17.149C13.0201 17.1581 12.9437 17.1107 12.8507 17.0454C12.5201 16.8133 12.2039 16.6691 11.8155 16.5767C11.6254 16.5316 11.5386 16.5271 10.929 16.5226C10.3815 16.5181 10.2306 16.5091 10.1397 16.482C9.85664 16.3919 9.75952 16.1508 9.78225 15.5941C9.79465 15.2764 9.85664 14.8009 9.8835 14.8009C9.89383 14.8009 10.0095 14.846 10.1439 14.9001ZM20.4215 14.9023C20.4711 15.2178 20.5042 15.6234 20.4939 15.815C20.4794 16.0967 20.436 16.2454 20.3348 16.3558C20.1984 16.5045 20.1281 16.5158 19.3367 16.5226C18.7355 16.5293 18.6259 16.5361 18.4524 16.5767C18.0743 16.6645 17.7168 16.8291 17.4027 17.0612C17.2353 17.1828 17.2312 17.1761 17.3449 16.9688C17.6651 16.3851 18.3532 15.7834 19.2272 15.3215C19.6281 15.1096 20.3182 14.8009 20.3761 14.8077C20.3947 14.8122 20.4112 14.8482 20.4215 14.9023Z" fill="#0B55E2"/>
</svg>
