<svg width="27" height="25" viewBox="0 0 27 25" fill="none" xmlns="http://www.w3.org/2000/svg">
<path d="M22.1904 9.19439C22.0117 9.18653 21.8408 9.17867 21.6698 9.16688C20.073 9.08043 18.5383 9.41837 17.0152 9.85061C16.176 10.0903 15.3251 10.3143 14.4665 10.4715C12.8852 10.7583 11.3544 10.5265 9.88961 9.87026C9.05427 9.49696 8.19562 9.2101 7.28258 9.10794C6.49775 9.02149 5.7168 9.04114 4.94363 9.22582C4.88923 9.23761 4.83484 9.2494 4.78044 9.26119C4.76102 9.26119 4.74159 9.26119 4.67943 9.25333C4.80376 8.9704 4.89312 8.69141 5.04464 8.44778C5.10681 8.34954 5.29719 8.33775 5.4254 8.2906C5.34381 8.2906 5.25057 8.28274 5.1107 8.27488C5.22725 8.0509 5.3205 7.84264 5.44095 7.65402C5.47203 7.60294 5.58859 7.59901 5.67018 7.59508C6.64927 7.54792 7.61282 7.63437 8.55307 7.92123C8.57638 7.92909 8.60357 7.92516 8.68517 7.93302C7.74104 7.43004 6.7736 7.23749 5.74011 7.14318C6.51329 5.90146 7.45741 4.87193 8.63854 4.07424C10.4025 2.87574 12.349 2.33347 14.4665 2.54174C18.5849 2.94254 21.3046 6.04292 22.1866 9.20224L22.1904 9.19439Z" fill="#0B55E2"/>
<path d="M22.6293 17.1949C23.4569 15.0454 23.6123 12.8528 23.2238 10.5933C23.387 10.613 23.5113 10.6287 23.6745 10.6483C23.655 10.5187 23.6434 10.4008 23.6162 10.2908C22.9907 7.48508 21.6036 5.16275 19.2996 3.44948C17.7649 2.306 16.0399 1.65763 14.1244 1.56725C11.0434 1.42186 8.48298 2.57713 6.38492 4.82481C5.02118 6.28658 4.14699 8.02343 3.67298 9.97246C3.66132 10.0118 3.66132 10.055 3.64967 10.1139C3.79342 10.1257 3.92553 10.1375 4.10425 10.1493C3.51757 12.5266 3.43209 14.8726 4.28686 17.242C3.92164 17.2224 3.61859 17.2145 3.31942 17.187C2.73662 17.132 2.16549 17.0102 1.63709 16.7469C0.95716 16.4051 0.467613 15.8824 0.23838 15.1476C-0.142378 13.9413 -0.095755 12.7624 0.588057 11.6621C1.0271 10.9509 1.64874 10.4597 2.45688 10.2397C2.59675 10.2004 2.65503 10.1375 2.69 9.99211C3.11738 8.08237 3.89833 6.33374 5.11054 4.7973C6.73459 2.74217 8.78214 1.32362 11.3387 0.765632C14.5557 0.0622509 17.493 0.761702 20.0961 2.79326C22.4234 4.61262 23.8415 7.03319 24.5098 9.91745C24.5759 10.2043 24.6147 10.499 24.6847 10.7819C24.7041 10.8566 24.7818 10.943 24.8517 10.9745C25.2908 11.1513 25.7337 11.3085 26.1727 11.4853C26.2776 11.5285 26.3903 11.6032 26.4447 11.6936C27.5209 13.4108 26.9847 15.8667 25.2519 16.853C24.91 17.0456 24.5487 17.1949 24.1485 17.2027C23.655 17.2145 23.1655 17.2027 22.6254 17.2027L22.6293 17.1949ZM23.5152 8.11773C21.6269 3.09583 17.3026 0.769561 13.4095 0.977825C18.1457 1.37863 21.4482 3.85029 23.5152 8.11773Z" fill="#0B55E2"/>
<path d="M21.6231 19.2461C21.3822 19.5487 21.153 19.8591 20.9005 20.1538C19.459 21.8199 17.7612 23.1245 15.7175 23.9497C14.6801 24.3663 13.6117 24.5667 12.5005 24.4802C11.7817 24.4213 11.1018 24.1776 10.449 23.8829C7.9741 22.7709 6.24125 20.9122 5.14172 18.4248C4.35689 16.6526 4.07715 14.7861 4.18982 12.8567C4.20536 12.6131 4.23256 12.3656 4.27141 12.1259C4.27918 12.0748 4.34134 11.9883 4.38408 11.9883C4.94745 11.9726 5.5147 11.953 6.03145 12.2359C6.06253 12.2516 6.08584 12.2752 6.09361 12.283C5.92266 12.4992 5.72451 12.6917 5.59241 12.9235C5.30878 13.4147 5.29713 13.9609 5.37483 14.5032C5.56133 15.8078 6.09361 16.9591 6.92118 17.969C7.3913 18.5388 7.99741 18.8414 8.74338 18.7274C9.07752 18.6763 9.40777 18.5781 9.72248 18.4563C10.3092 18.2244 10.8725 17.9297 11.4631 17.7097C11.8672 17.5564 12.3023 17.4818 12.7258 17.3757C12.7647 17.3639 12.8113 17.36 12.8501 17.3717C13.8836 17.7057 14.5869 18.362 14.311 19.5605C14.1711 20.1656 13.8487 20.6843 13.5378 21.2069C13.398 21.4388 13.2659 21.6824 13.1765 21.9378C12.9045 22.7001 13.192 23.152 13.9808 23.2974C14.5169 23.3957 14.9987 23.2346 15.4805 23.0538C16.716 22.5823 17.8466 21.9103 18.9345 21.1637C19.797 20.5743 20.6207 19.9259 21.4638 19.3051C21.5066 19.2736 21.5493 19.2461 21.5921 19.2186C21.6037 19.2304 21.6193 19.2422 21.6309 19.2579L21.6231 19.2461Z" fill="#0B55E2"/>
<path d="M23.2822 9.6738C23.4531 10.0668 23.4453 10.0864 23.0762 10.1768C23.2045 10.2004 23.2977 10.2082 23.3793 10.2397C23.4182 10.2554 23.4337 10.3182 23.4609 10.3615C23.422 10.3772 23.3793 10.4126 23.3443 10.4086C23.2433 10.4008 23.1423 10.3811 23.0257 10.3615C23.0218 10.4322 23.018 10.4872 23.0141 10.554C22.6644 10.5186 22.3225 10.4715 21.9767 10.4518C20.714 10.3733 19.4785 10.4715 18.3051 11.002C17.6446 11.3006 17.0929 11.7368 16.6344 12.3026C16.6189 12.3223 16.6111 12.3459 16.6111 12.3852C17.6796 11.6386 18.8413 11.1317 20.1312 10.9666C20.8655 10.8723 21.5998 10.892 22.338 11.0531C22.272 11.0688 22.2098 11.0884 22.1438 11.1041C22.0777 11.1199 22.0078 11.1277 21.9379 11.1356C20.6169 11.3399 19.4008 11.8429 18.2313 12.4755C17.4231 12.9117 16.6228 13.3636 15.7991 13.7683C14.008 14.6525 12.2168 14.5385 10.4685 13.6544C9.62535 13.23 8.82498 12.7192 7.99353 12.2633C6.80463 11.615 5.55356 11.1434 4.18206 11.1002C4.16263 11.1002 4.1432 11.0884 4.11601 11.0806C4.0655 10.9312 4.12766 10.8448 4.27142 10.8016C4.57836 10.7073 4.88529 10.6208 5.18446 10.5147C5.39815 10.4401 5.42923 10.2789 5.22331 10.1807C4.92026 10.0353 4.59001 9.94494 4.27142 9.83884C4.20148 9.81527 4.12378 9.80741 4.04996 9.79169C4.04996 9.77204 4.04607 9.74846 4.04219 9.72882C4.33358 9.6738 4.62498 9.607 4.92026 9.57164C6.46272 9.37909 7.8964 9.74454 9.26402 10.444C10.0838 10.8644 10.9153 11.2456 11.8244 11.4303C12.9512 11.6621 14.0701 11.611 15.158 11.2653C16.1488 10.9509 17.124 10.5737 18.1031 10.22C19.1793 9.83098 20.2827 9.61879 21.4328 9.69738C21.627 9.70917 21.8252 9.72096 22.0117 9.76811C22.373 9.85849 22.7227 9.85849 23.0685 9.72096C23.1306 9.69738 23.2006 9.68952 23.2783 9.6738H23.2822Z" fill="#0B55E2"/>
<path d="M17.3338 17.8983C16.5412 17.8786 15.8147 17.5879 15.1114 17.1988C14.7384 16.9906 14.346 16.7902 13.9419 16.6605C13.2542 16.4404 12.586 16.5544 11.9604 16.9238C11.3971 17.2578 10.8221 17.5682 10.181 17.7254C8.09069 18.2402 6.8979 16.8845 6.52103 15.4148C6.39282 14.9158 6.34619 14.405 6.47052 13.8941C6.49383 13.792 6.5288 13.6898 6.57154 13.5955C6.80854 13.0375 7.26701 12.8449 7.81483 13.0925C8.68903 13.4894 9.54379 13.9216 10.4219 14.3107C11.1018 14.6093 11.7856 14.9079 12.4927 15.1241C13.3591 15.3913 14.2217 15.2066 15.0337 14.8569C16.2459 14.3303 17.4387 13.7684 18.647 13.23C18.8724 13.1279 19.1094 13.0336 19.3542 12.9982C19.7349 12.9393 20.0069 13.1357 20.1778 13.4737C20.411 13.9413 20.4187 14.4364 20.3371 14.9354C20.205 15.7567 19.8903 16.4955 19.292 17.0927C18.7558 17.6272 18.1109 17.8944 17.3377 17.9022L17.3338 17.8983ZM18.1458 14.0277C18.1147 14.0159 18.0876 14.0081 18.0565 13.9963C16.9997 14.4521 15.9662 14.9472 15.3368 16.02C15.364 16.0278 15.3717 16.0318 15.3756 16.0318C15.4067 16.0161 15.4378 16.0003 15.465 15.9807C15.8924 15.682 16.3625 15.517 16.8909 15.5249C17.1473 15.5249 17.4037 15.5249 17.6641 15.517C17.9904 15.5052 18.1342 15.3952 18.1614 15.073C18.1886 14.7272 18.1575 14.3775 18.1497 14.0317L18.1458 14.0277ZM11.4126 16.0239C10.7949 14.9512 9.77302 14.4403 8.66183 13.9766C8.63463 14.2596 8.59966 14.4993 8.58801 14.7429C8.55304 15.3441 8.71234 15.5131 9.30679 15.517C9.37672 15.517 9.44666 15.5209 9.51659 15.517C10.2004 15.4738 10.8415 15.5995 11.4165 16.02L11.4126 16.0239Z" fill="#0B55E2"/>
<path d="M20.8771 12.7782C20.9897 13.0061 21.1218 13.2261 21.2151 13.4619C21.759 14.7979 21.86 16.1615 21.3278 17.5211C20.9237 18.5545 20.2049 19.2618 19.0859 19.4387C18.3982 19.5448 17.7183 19.4308 17.0617 19.1833C15.8806 18.7392 14.8704 18.0201 13.9301 17.1714C14.0079 17.2067 14.0894 17.2382 14.1633 17.2814C15.088 17.7961 16.0554 18.193 17.1122 18.3227C17.9786 18.4327 18.8373 18.3856 19.626 17.9494C20.8421 17.2735 21.3083 16.1811 21.2889 14.8294C21.2811 14.1967 21.1179 13.5955 20.8887 13.01C20.8615 12.9432 20.8382 12.8725 20.811 12.8057C20.8304 12.7978 20.8499 12.786 20.8732 12.7782H20.8771Z" fill="#0B55E2"/>
</svg>
